# xmcd
#
# Track frame offsets:
#	150
#	18072
#	38995
#	58487
#	85915
#	104887
#	119062
#	147105
#	174670
#	194642
#	224297
#	244872
#
# Disc length: 3547 seconds
# Revision: 4
# Processed by: cddbd v1.5.2PL0 Copyright (c) Steve Scherf et al.
# Submitted via: dBpowerAMP V12.0
#
DISCID=bb0dd90c
DTITLE=Son Seals - Nothing But The Truth
DYEAR=1994
DGENRE=Blues
TTITLE0=Adding up
TTITLE1=Good Woman Bad
TTITLE2=Before The Bullets Fly
TTITLE3=I'm Gonna Take it All Back
TTITLE4=Life is Hard
TTITLE5=Tough as Nails
TTITLE6=Your Friends
TTITLE7=Sadie
TTITLE8=Frank And Johnnie
TTITLE9=Can't Hear Nothing But The Blues
TTITLE10=Little Sally Walker
TTITLE11=Tricks of The Trade
EXTD=
EXTT0=
EXTT1=
EXTT2=
EXTT3=
EXTT4=
EXTT5=
EXTT6=
EXTT7=
EXTT8=
EXTT9=
EXTT10=
EXTT11=
PLAYORDER=
